PathFileType	4	(X/Y/Z)	./resultDataOpenSim/trcMotMarkerGrf/sub09/qtm-15-05.trc
DataRate	CameraRate	NumFrames	NumMarkers	Units	OrigDataRate	OrigDataStartFrame	OrigNumFrames
250.000000	250.000000	8	24	m	250.000000	306	488
Frame#	Time	L.Toe.Tip			R.Toe.Tip			L.Ankle.Lat			R.Ankle.Lat			L.Ankle.Med			R.Ankle.Med			L.Heel			R.Heel			L.Knee.Lat			R.Knee.Lat			L.Knee.Med			R.Knee.Med			L.Thigh.Upper			R.Thigh.Upper			L.ASIS			R.ASIS			V.Sacral			L.Acromium			R.Acromium			C7			L.Elbow			R.Elbow			L.Wrist.Lat			R.Wrist.Lat
		X1	Y1	Z1	X2	Y2	Z2	X3	Y3	Z3	X4	Y4	Z4	X5	Y5	Z5	X6	Y6	Z6	X7	Y7	Z7	X8	Y8	Z8	X9	Y9	Z9	X10	Y10	Z10	X11	Y11	Z11	X12	Y12	Z12	X13	Y13	Z13	X14	Y14	Z14	X15	Y15	Z15	X16	Y16	Z16	X17	Y17	Z17	X18	Y18	Z18	X19	Y19	Z19	X20	Y20	Z20	X21	Y21	Z21	X22	Y22	Z22	X23	Y23	Z23	X24	Y24	Z24

306	1.22	0.22881546	-0.040050282	-0.013487655	1.1380804	0.040453566	0.03110655	0.19473876	0.10622006	-0.095754285	0.99061394	0.05182085	0.067853714	0.22954636	0.10643927	-0.0044772816	0.99388239	0.093108787	-0.023465371	0.13750988	0.14668675	-0.050656019	0.9205355	0.032443896	0.019858004	0.51161982	0.3849109	-0.13961702	0.99161313	0.50430899	0.13345458	0.52681577	0.36796178	-0.016201107	0.97571124	0.49514971	0.0077317452	0.65973873	0.76507246	-0.1555334	0.72684897	0.80801453	0.21170162	0.77361746	0.83582481	-0.1132007	0.79388831	0.87831052	0.12357138	0.62101471	0.92637349	0.010880426	0.85859126	1.2939187	-0.15381871	0.81465238	1.3154328	0.17390219	0.77004889	1.3636013	0.00054356512	0.71633518	0.9401345	-0.23186706	0.59516957	1.0380596	0.25596734	0.96625625	0.82977785	-0.19432432	0.62122118	0.77534745	0.32898807
307	1.224	0.23117974	-0.038118143	-0.014639982	1.1381354	0.040357557	0.030827534	0.20160334	0.11025467	-0.095943975	0.9905748	0.051998893	0.067693158	0.23663573	0.10929301	-0.0047147569	0.99423505	0.0930262	-0.023775121	0.14551362	0.15221507	-0.050509632	0.92052228	0.032416072	0.019649961	0.52318945	0.38256301	-0.14085362	0.99873254	0.50376684	0.13300115	0.53798225	0.36559257	-0.01706214	0.98148054	0.49498579	0.0072022122	0.66691913	0.76401727	-0.15526795	0.73399788	0.8088073	0.21188531	0.78020252	0.83546848	-0.11266671	0.80060318	0.8785337	0.12392731	0.62756741	0.92637179	0.011087346	0.86552869	1.2935514	-0.15359552	0.82115943	1.3152708	0.17392272	0.77670892	1.3635653	0.00060067088	0.72276978	0.94008297	-0.23143175	0.60245547	1.0370018	0.25579367	0.97140858	0.82713512	-0.19380225	0.62933027	0.77438179	0.32905774
308	1.228	0.2336577	-0.0359831	-0.015992405	1.1381482	0.040278458	0.030747459	0.20882987	0.11457086	-0.096134945	0.9904772	0.052154843	0.067587885	0.24399549	0.11230736	-0.0048552868	0.9945748	0.092877626	-0.024008987	0.15388653	0.15799717	-0.050252118	0.92048526	0.032366624	0.019502185	0.53491047	0.3802713	-0.14189758	1.0056023	0.50322534	0.13265631	0.54923819	0.36338751	-0.017867138	0.9868268	0.49464563	0.006806012	0.67401762	0.76314859	-0.15500262	0.74112972	0.80953049	0.21205206	0.78666082	0.83528244	-0.11222322	0.80718647	0.87867657	0.12423843	0.63438336	0.92643884	0.011256801	0.87235059	1.2933056	-0.15339212	0.82760277	1.3152611	0.17390209	0.78326583	1.3636175	0.00061562022	0.72919821	0.9401569	-0.23101298	0.6095818	1.0360568	0.25553736	0.97644478	0.82446444	-0.19329213	0.63750938	0.77354839	0.32905136
309	1.232	0.23629035	-0.0335468	-0.017532684	1.1381331	0.04021835	0.030747212	0.21636849	0.11916026	-0.096357107	0.99035799	0.052261736	0.067537247	0.25161195	0.11549971	-0.0049378222	0.99488396	0.092720866	-0.024150833	0.16263366	0.16400527	-0.049909859	0.92043296	0.032313962	0.019437462	0.54685302	0.37808915	-0.14283316	1.0116889	0.50270202	0.13240788	0.56069303	0.36128978	-0.018741777	0.99190545	0.49422248	0.0065095588	0.6809864	0.76246166	-0.15466982	0.74822447	0.81016075	0.21220486	0.79300332	0.83525347	-0.11186506	0.81364823	0.87877885	0.12450329	0.64123988	0.926586	0.011443119	0.87904058	1.2931976	-0.15321171	0.83398486	1.3153945	0.17384049	0.78971186	1.3637576	0.0005855027	0.73561506	0.94035262	-0.23060747	0.61658016	1.0352474	0.25522684	0.98136143	0.82177436	-0.19279779	0.64575289	0.77285262	0.32896106
310	1.236	0.23912975	-0.030693593	-0.019217887	1.13811	0.040172414	0.030756522	0.22411252	0.12397691	-0.096563664	0.99023962	0.052313559	0.067529091	0.25947342	0.11888445	-0.0049993213	0.99515779	0.092587759	-0.024212995	0.17173879	0.17019825	-0.04949172	0.92037937	0.032272421	0.019437916	0.5590559	0.37605348	-0.14374245	1.016759	0.50222041	0.13221722	0.5724014	0.35924517	-0.019745417	0.99685269	0.49377859	0.0062807589	0.68779846	0.76194837	-0.15427918	0.7552523	0.81068106	0.21234189	0.79923985	0.83536289	-0.1115763	0.81999842	0.87887857	0.12471718	0.64799583	0.92684828	0.011674888	0.88558496	1.2932307	-0.15305746	0.84030788	1.3156577	0.17374034	0.79603701	1.363997	0.00050328852	0.74201068	0.94065481	-0.23020658	0.62353888	1.0345963	0.2549274	0.98615698	0.81908146	-0.19232347	0.65405486	0.77228942	0.32878298
311	1.24	0.24224807	-0.027307464	-0.021004277	1.1380857	0.040134406	0.030777063	0.23198144	0.12897466	-0.096696484	0.99013556	0.052310446	0.067544596	0.26756752	0.12247334	-0.0050713203	0.99542098	0.09248131	-0.024224979	0.1811603	0.17654152	-0.048995983	0.92032998	0.032244629	0.0194689	0.57144891	0.3741518	-0.14461479	1.0210423	0.50178017	0.13205166	0.58432066	0.35727981	-0.020798542	1.0017461	0.49333474	0.0060962755	0.69445281	0.76159926	-0.15387767	0.76216668	0.81109034	0.21246012	0.80537355	0.83559918	-0.11134387	0.82624466	0.87901381	0.12487828	0.6545808	0.92725521	0.011953444	0.8919801	1.2933964	-0.15293988	0.84657965	1.3160431	0.17360897	0.80224826	1.3643482	0.00037716548	0.74837372	0.94104378	-0.22980026	0.63056412	1.0341162	0.25471115	0.9908336	0.81640691	-0.19187523	0.66240727	0.77185595	0.32851503
312	1.244	0.24574005	-0.023319056	-0.022859822	1.1380554	0.040103661	0.030815605	0.23999661	0.13416056	-0.096764706	0.99004146	0.052257688	0.067564722	0.27588244	0.12627306	-0.0051799888	0.99570289	0.092396657	-0.024215133	0.19084429	0.18300943	-0.048428278	0.92027978	0.032222746	0.019504653	0.58393763	0.3723789	-0.14540141	1.0250645	0.50134805	0.13189581	0.59636219	0.3554875	-0.021739273	1.0065981	0.49288043	0.0059450423	0.70096088	0.76140454	-0.15349083	0.76890897	0.81140753	0.21256142	0.81140711	0.83595949	-0.11116045	0.83239469	0.87922186	0.12499015	0.66097363	0.92781208	0.012267069	0.89823531	1.2936865	-0.15287184	0.85280986	1.3165508	0.17345482	0.80836829	1.3648126	0.00023449613	0.75469542	0.94151585	-0.22938352	0.6376922	1.0338094	0.25460212	0.99539517	0.8137699	-0.19146114	0.67080504	0.77155853	0.32815906
313	1.248	0.24969609	-0.018778429	-0.024746127	1.1380138	0.040083296	0.030859849	0.2482373	0.13956679	-0.096831206	0.98994148	0.052176782	0.067575784	0.28441213	0.13028168	-0.0053455226	0.99600472	0.09233589	-0.024198578	0.20074774	0.18957901	-0.047819876	0.92022173	0.032198986	0.019533696	0.59646422	0.37078718	-0.14608636	1.0292232	0.50090578	0.13176904	0.60847616	0.35393663	-0.022471127	1.0113783	0.49239363	0.0058274637	0.70733606	0.76135335	-0.15311198	0.775426	0.81166697	0.21265513	0.81735244	0.83644048	-0.11102155	0.83845869	0.87953092	0.12506062	0.66719338	0.92850288	0.012597566	0.90436166	1.2941026	-0.15286199	0.85900638	1.3171814	0.17328691	0.8144139	1.365384	9.6734075e-05	0.76096871	0.94208641	-0.22895502	0.6448644	1.0336664	0.25456358	0.99983876	0.81118691	-0.19109012	0.67924992	0.77140394	0.32772173
